<svg xmlns="http://www.w3.org/2000/svg" viewBox="0 0 525.24 560.38"><g id="af32841b-251e-4c6f-9182-d2e86b3e252d" data-name="Layer 1"><path d="M393.92,186.39V142.67H350.77a95.24,95.24,0,0,0-176.29,0H131.32v43.15a95.24,95.24,0,0,0,0,176.29v43.16h42.93a95.24,95.24,0,0,0,176.74,0h42.93V362.68a95.24,95.24,0,0,0,0-176.29Zm-4.09,166.29-6.71,2.75v39H343.69L341,401.24a84.44,84.44,0,0,1-156.7,0l-2.72-6.77H142.12v-39.6l-6.7-2.75a84.43,84.43,0,0,1,0-156.3l6.7-2.75v-39.6h39.6l2.75-6.71a84.44,84.44,0,0,1,156.3,0l2.75,6.71h39.6v40.16l6.71,2.75a84.44,84.44,0,0,1,0,156.3Z" transform="translate(0 -2.83)" fill="#ec576c"/><path d="M262.62,447.9a80.66,80.66,0,0,1-75.16-50.81L184.59,390h-38V351.84L139.58,349a81,81,0,0,1,0-149.95l7.06-2.89V158h38.11l2.9-7.06a81,81,0,0,1,150,0l2.89,7.06h38.12v38.67l7.05,2.89a81,81,0,0,1,0,150l-7.05,2.89V390h-38l-2.86,7.13A80.68,80.68,0,0,1,262.62,447.9ZM155.38,381.21H190.5l5.07,12.61a72.25,72.25,0,0,0,134.1,0l5.07-12.61h35.12V346.52l12.49-5.11a72.27,72.27,0,0,0,0-133.77l-12.49-5.12V166.74H334.62l-5.12-12.49a72.26,72.26,0,0,0-133.76,0l-5.12,12.49H155.38V202l-12.49,5.11a72.27,72.27,0,0,0,0,133.77L155.38,346Z" transform="translate(0 -2.83)" fill="#23a4a6"/></g><g id="e0fee6d2-4fef-41cb-86db-362ba46df793" data-name="Layer 2"><path d="M223.05,241.92l-3.61,7.16a36.14,36.14,0,0,1,11.9,19.29h8A44,44,0,0,0,223.05,241.92Z" transform="translate(0 -2.83)" fill="#ee8e21"/><path d="M196.22,310.77a36.09,36.09,0,1,1,8.38-71.19l3.61-7.16a43.52,43.52,0,0,0-12-1.67A43.93,43.93,0,1,0,239.36,283h-8A36.16,36.16,0,0,1,196.22,310.77Z" transform="translate(0 -2.83)" fill="#ee8e21"/><path d="M297.82,221.41l27.7,55a3.92,3.92,0,0,0,7-3.53l-34.32-68.21H319a4.87,4.87,0,0,1,0,9.73,3.92,3.92,0,1,0,0,7.84,12.71,12.71,0,1,0,0-25.41h-26a4.07,4.07,0,0,0-.61,0,3.81,3.81,0,0,0-2.37.37,3.91,3.91,0,0,0-1.74,5.26l3.61,7.18H230.06l-3.25-6.44,4.12-.83a3.92,3.92,0,0,0,0-7.84H210.34a3.92,3.92,0,0,0-3.92,3.92c0,2.17,3.94,7.61,6.1,7.61l6.32-1.27,4.08,8.11-30.2,59.93a3.91,3.91,0,0,0,3.5,5.68h62.13a3.88,3.88,0,0,0,.48,0h.09l.37-.07.16-.05.28-.09.2-.09.18-.07.06,0,.13-.07.26-.16.12-.09.26-.21.08-.07a3.85,3.85,0,0,0,.59-.69l0,0ZM291,217.58l-32.16,49.25L234,217.58Zm-63.64,4.13,24.67,49H202.59Z" transform="translate(0 -2.83)" fill="#23a4a6"/><path d="M329,230.75a43.73,43.73,0,0,0-12,1.66l3.61,7.17a36.15,36.15,0,1,1-14.85,7.49l-3.6-7.16a43.89,43.89,0,1,0,26.8-9.16Z" transform="translate(0 -2.83)" fill="#ee8e21"/></g><g id="f2c01911-9f9d-4a33-bc21-853677938710" data-name="Layer 3"><path d="M31.25,242.87,28.33,241a14.48,14.48,0,0,0,4.31-8.8c.57-4.8-1.05-7.09-3.47-7.38-6.8-.81-4.51,16.54-14.84,15.31-4.29-.51-7.55-4.28-6.68-11.59a16.48,16.48,0,0,1,3.53-8.64l3,1.69A14.37,14.37,0,0,0,11,229c-.57,4.73,1.18,7,3.6,7.28,6.79.81,4.55-16.54,14.76-15.32,4.25.5,7.5,4.36,6.62,11.7C35.51,236.9,33.58,240.9,31.25,242.87Z" transform="translate(0 -2.83)" fill="#ee8e42"/><path d="M28.19,190l15.27,3.72-.94,3.88L35,195.76l-3.82,15.7,7.5,1.83-.93,3.81-15.27-3.73c-8-2-11.11-7.64-9.41-14.64S20.14,188,28.19,190Zm3.44,5-4.74-1.15c-5.67-1.39-9.17,1-10.35,5.79s.85,8.53,6.53,9.91l4.74,1.16Z" transform="translate(0 -2.83)" fill="#ee8e42"/><path d="M28.42,154.12l26.05,10.26-1.2,3.05-25.58,8,19.42,7.65-1.46,3.72-26-10.25,1.2-3.06,25.58-8L27,157.84Z" transform="translate(0 -2.83)" fill="#ee8e42"/><path d="M61.88,119.8l13.33,8.33-2.12,3.39-6.55-4.09L58,141.14l6.55,4.09-2.08,3.32-13.33-8.33c-7-4.39-8.14-10.75-4.33-16.85S54.86,115.41,61.88,119.8Zm1.71,5.79L59.45,123c-5-3.09-9-2-11.64,2.25s-1.87,8.36,3.08,11.46L55,139.29Z" transform="translate(0 -2.83)" fill="#ee8e42"/><path d="M73.44,85.82l21.48,18-2.11,2.52L66,105.8l16,13.4-2.56,3.06L58,104.3l2.1-2.52,26.8.51-16-13.4Z" transform="translate(0 -2.83)" fill="#ee8e42"/><path d="M87.58,76.76l-7,6.58-2.38-2.53L95.08,64.94l2.38,2.53-7,6.58,16.8,17.86-2.88,2.71Z" transform="translate(0 -2.83)" fill="#ee8e42"/><path d="M106.82,73.09c-4.86-6.6-3.39-15.28,3.54-20.37s15.55-3.9,20.44,2.74,3.39,15.28-3.47,20.33S111.68,79.7,106.82,73.09Zm20.76-15.26a10.88,10.88,0,0,0-17.53,12.89,10.88,10.88,0,0,0,17.53-12.89Z" transform="translate(0 -2.83)" fill="#ee8e42"/><path d="M151.46,28l13.32,24.63-2.89,1.56L137.18,43.83l9.93,18.37-3.52,1.91L130.28,39.47l2.88-1.56,24.71,10.38-9.93-18.37Z" transform="translate(0 -2.83)" fill="#ee8e42"/><path d="M169,24.4,177,43.88l5-2,1.32,3.22-13.71,5.59-1.31-3.22,5-2-7.95-19.48-5,2L159,24.73l13.71-5.6L174,22.36Z" transform="translate(0 -2.83)" fill="#ee8e42"/><path d="M181.88,30.33c-2.24-7.89,2.16-15.5,10.43-17.86s15.94,1.78,18.19,9.71S208.35,37.68,200.15,40,184.13,38.21,181.88,30.33Zm24.77-7.06a10.88,10.88,0,0,0-20.92,6,10.88,10.88,0,0,0,20.92-6Z" transform="translate(0 -2.83)" fill="#ee8e42"/><path d="M226.57,21l10.67-1.36.42,3.3L227,24.29Z" transform="translate(0 -2.83)" fill="#ee8e42"/><path d="M279.7,3.32l-.57,28-3.28-.07L259.48,10l-.43,20.88-4-.08.57-28,3.28.07,16.37,21.22.43-20.88Z" transform="translate(0 -2.83)" fill="#ee8e42"/><path d="M307.72,32.24c-2.67,1.68-6.88,2.28-11.43,1.62-7.8-1.13-11.31-5-10.65-9.62a6.9,6.9,0,0,1,5.86-5.86,6.52,6.52,0,0,1-2.84-6.63c.61-4.2,4.76-7.23,12.32-6.14a19.68,19.68,0,0,1,8.92,3.47l-1.61,3a16.66,16.66,0,0,0-7.64-3c-5-.73-7.69.9-8.07,3.56s1.4,4.56,5,5.09l7.13,1-.5,3.4L297,21.07c-4-.58-6.89.42-7.33,3.47-.42,2.88,1.84,5.15,7.34,5.95,3.68.53,7.4,0,9.84-1.53Z" transform="translate(0 -2.83)" fill="#ee8e42"/><path d="M357.17,20.27l-4.95,16.09c-2.25,7.3-7.2,9.8-13.78,7.77-4-1.23-6.56-3.69-7.39-6.58-2.3,1.92-5.72,2.55-9.77,1.3-6.58-2-9.23-6.86-7-14.16L319.25,8.6l3.82,1.17-4.92,16c-1.67,5.43.05,8.43,4.18,9.7s7.38-.2,9.05-5.63l4.92-16L340.12,15,335.2,31c-1.67,5.43.2,8.47,4.29,9.73s7.27-.23,8.94-5.66l4.92-16Z" transform="translate(0 -2.83)" fill="#ee8e42"/><path d="M389.44,60c-2.35,4.19-6.87,4.82-13.05,1.37L364.73,54.8,378.4,30.36l11,6.13c5.62,3.14,7.43,7.28,5.23,11.22a6.65,6.65,0,0,1-6.33,3.61A6.77,6.77,0,0,1,389.44,60Zm-3.37-2.25c1.58-2.83.19-5.26-3.69-7.42l-8-4.49-4.54,8.13,8,4.49C381.71,60.58,384.49,60.53,386.07,57.7Zm-5.76-22.56L375.93,43l7.16,4c3.56,2,6.33,1.8,7.77-.78s.16-5-3.4-7Z" transform="translate(0 -2.83)" fill="#ee8e42"/><path d="M405.2,80.73l.26-10.51c-.48-.3-1-.62-1.46-1l-5.57-4.11L393.37,72l-3.22-2.38L406.8,47.09l8.78,6.49c5.85,4.33,7.2,9.9,3.58,14.79A8.84,8.84,0,0,1,409,71.82l-.25,11.5ZM416,66c2.38-3.21,1.58-6.64-2.54-9.68l-5.46-4-7.5,10.12,5.47,4C410,69.48,413.57,69.21,416,66Z" transform="translate(0 -2.83)" fill="#ee8e42"/><path d="M440.66,91.92l-10.91,11.32-2.88-2.78,5.36-5.56L420.6,83.69l-5.36,5.55-2.82-2.72,10.91-11.31c5.75-6,12.2-5.73,17.39-.74S446.41,86,440.66,91.92Zm-6,.48L438,88.89c4.06-4.2,3.78-8.41.21-11.86s-7.78-3.56-11.83.64L423,81.18Z" transform="translate(0 -2.83)" fill="#ee8e42"/><path d="M444,101l12.49-9.87,2.48,3.14L446.55,104c-4.86,3.84-5.3,7.8-2.18,11.76s7.11,4.48,12,.64l12.37-9.77,2.41,3-12.5,9.86c-6.37,5-12.48,4.2-17.07-1.61S437.58,106,444,101Z" transform="translate(0 -2.83)" fill="#ee8e42"/><path d="M489.66,139.56l-24.11,14.25L463.88,151l9.43-25.1-18,10.63-2-3.44,24.11-14.25,1.67,2.82-9.43,25.09,18-10.63Z" transform="translate(0 -2.83)" fill="#ee8e42"/><path d="M486.76,156.92l-2.93,1.28L489,169.92l-3.15,1.38-5.15-11.72-10.36,4.55-1.61-3.66,16.48-7.23c5.86-2.57,11.17-.23,14.11,6.47a14.29,14.29,0,0,1,1.31,8.25l-3.57.13a11.46,11.46,0,0,0-1-6.84C494,156.49,490.76,155.16,486.76,156.92Z" transform="translate(0 -2.83)" fill="#ee8e42"/><path d="M486.79,200.59c-2.67-1.66-5.06-5.18-6.46-9.56-2.41-7.51-.44-12.38,4-13.8a6.9,6.9,0,0,1,7.83,2.7,6.54,6.54,0,0,1,4.72-5.46c4-1.29,8.59,1.11,10.92,8.39a19.72,19.72,0,0,1,.79,9.53l-3.4-.12a16.74,16.74,0,0,0-.62-8.21c-1.53-4.8-4.18-6.51-6.73-5.69s-3.49,3.26-2.37,6.76l2.19,6.86-3.27,1-2.25-7c-1.24-3.89-3.39-6-6.33-5.07-2.78.89-3.82,3.91-2.13,9.21,1.14,3.54,3.26,6.64,5.69,8.17Z" transform="translate(0 -2.83)" fill="#ee8e42"/><path d="M512.26,200l.81,3.92-24,5,3.07,14.84-3.41.71-3.87-18.76Z" transform="translate(0 -2.83)" fill="#ee8e42"/><path d="M492,225.14l3.25,1.16a14.33,14.33,0,0,0-2.28,9.51c.49,4.82,2.57,6.7,5,6.45,6.81-.69.79-17.12,11.14-18.18,4.29-.44,8.29,2.53,9,9.85a16.56,16.56,0,0,1-1.55,9.21l-3.32-1a14.53,14.53,0,0,0,1.49-7.87c-.48-4.74-2.68-6.56-5.11-6.32-6.8.7-.82,17.13-11.05,18.17-4.26.44-8.26-2.61-9-10C489.19,231.9,490.2,227.58,492,225.14Z" transform="translate(0 -2.83)" fill="#ee8e42"/><path d="M104.76,513c0-8.2,6.32-14.32,14.92-14.32s14.84,6.08,14.84,14.32-6.32,14.32-14.84,14.32S104.76,521.2,104.76,513Zm25.76,0a10.88,10.88,0,1,0-10.84,10.76A10.51,10.51,0,0,0,130.52,513Z" transform="translate(0 -2.83)" fill="#ee8e21"/><path d="M138.12,516.4c0-6.32,4.68-10.8,11.2-10.8,3.8,0,7,1.56,8.64,4.52L155,512a6.61,6.61,0,0,0-5.76-3A7,7,0,0,0,142,516.4c0,4.6,3.12,7.48,7.28,7.48a6.61,6.61,0,0,0,5.76-3l2.92,1.84c-1.68,3-4.84,4.56-8.64,4.56C142.8,527.24,138.12,522.72,138.12,516.4Z" transform="translate(0 -2.83)" fill="#ee8e21"/><path d="M173.8,525.76a7.24,7.24,0,0,1-4.64,1.48c-4.28,0-6.72-2.36-6.72-6.64V501.16h3.84v4.64h6.08V509h-6.08v11.48c0,2.28,1.16,3.56,3.32,3.56a4.84,4.84,0,0,0,3-1Z" transform="translate(0 -2.83)" fill="#ee8e21"/><path d="M175.76,516.4c0-6.32,4.68-10.8,11-10.8s11,4.48,11,10.8-4.64,10.84-11,10.84S175.76,522.72,175.76,516.4Zm18.16,0c0-4.52-3-7.44-7.12-7.44s-7.16,2.92-7.16,7.44,3.08,7.48,7.16,7.48S193.92,520.92,193.92,516.4Z" transform="translate(0 -2.83)" fill="#ee8e21"/><path d="M225.08,516.4c0,6.48-4.52,10.84-10.72,10.84a9,9,0,0,1-7.56-3.6V527h-3.68V497.33H207V509a9,9,0,0,1,7.4-3.4C220.56,505.6,225.08,509.92,225.08,516.4Zm-3.88,0c0-4.52-3.08-7.44-7.16-7.44s-7.12,2.92-7.12,7.44,3.08,7.48,7.12,7.48S221.2,520.92,221.2,516.4Z" transform="translate(0 -2.83)" fill="#ee8e21"/><path d="M246.08,521.32l2.08,2.48a10.5,10.5,0,0,1-8.32,3.44c-6.84,0-11.4-4.52-11.4-10.84s4.48-10.8,10.64-10.8c5.8,0,10.32,4.08,10.44,10.4l-16.84,3.28c1.08,2.92,3.72,4.6,7.28,4.6A7.92,7.92,0,0,0,246.08,521.32Zm-13.92-5.12v.4L245.72,514a6.55,6.55,0,0,0-6.64-5.2C235,508.84,232.16,511.76,232.16,516.2Z" transform="translate(0 -2.83)" fill="#ee8e21"/><path d="M266.28,505.6v3.72a6.78,6.78,0,0,0-.88,0c-4.12,0-6.68,2.52-6.68,7.16V527h-3.84V505.8h3.68v3.56C259.92,506.88,262.56,505.6,266.28,505.6Z" transform="translate(0 -2.83)" fill="#ee8e21"/><path d="M300,523.52V527H279.88v-2.72l11.4-11c3-2.88,3.52-4.64,3.52-6.4,0-2.88-2-4.64-6-4.64a8.8,8.8,0,0,0-7.16,3L279,502.92c2.16-2.68,5.88-4.24,10.24-4.24,5.84,0,9.6,3,9.6,7.8,0,2.72-.8,5.16-4.6,8.8l-8.56,8.24Z" transform="translate(0 -2.83)" fill="#ee8e21"/><path d="M303.36,514.36h10.76v3.32H303.36Z" transform="translate(0 -2.83)" fill="#ee8e21"/><path d="M336.68,518.76c0,4.72-3.48,8.56-10.6,8.56-4,0-7.92-1.28-10.28-3.4l1.84-3.16a12.61,12.61,0,0,0,8.44,3c4.2,0,6.6-1.92,6.6-5s-2.12-4.88-6.92-4.88h-2.24v-2.8l7-8.64H317.08V499h18.48v2.72l-7.32,9C333.84,511.28,336.68,514.44,336.68,518.76Z" transform="translate(0 -2.83)" fill="#ee8e21"/><path d="M370.84,523.52V527H350.72v-2.72l11.4-11c3-2.88,3.52-4.64,3.52-6.4,0-2.88-2-4.64-6-4.64a8.8,8.8,0,0,0-7.16,3l-2.72-2.36c2.16-2.68,5.88-4.24,10.24-4.24,5.84,0,9.6,3,9.6,7.8,0,2.72-.8,5.16-4.6,8.8l-8.56,8.24Z" transform="translate(0 -2.83)" fill="#ee8e21"/><path d="M374,513c0-9.12,4.88-14.32,11.44-14.32s11.4,5.2,11.4,14.32-4.88,14.32-11.4,14.32S374,522.12,374,513Zm18.84,0c0-7.16-3-10.76-7.4-10.76S378,505.84,378,513s3,10.76,7.44,10.76S392.84,520.16,392.84,513Z" transform="translate(0 -2.83)" fill="#ee8e21"/><path d="M420.24,523.52V527H400.12v-2.72l11.4-11c3-2.88,3.52-4.64,3.52-6.4,0-2.88-2-4.64-6-4.64a8.8,8.8,0,0,0-7.16,3l-2.72-2.36c2.16-2.68,5.88-4.24,10.24-4.24,5.84,0,9.6,3,9.6,7.8,0,2.72-.8,5.16-4.6,8.8l-8.56,8.24Z" transform="translate(0 -2.83)" fill="#ee8e21"/><path d="M432.2,499v28h-4V502.48h-6.32V499Z" transform="translate(0 -2.83)" fill="#ee8e21"/><path d="M114.9,557.94c0,3.21-2.43,5.06-7.18,5.06h-9V544.24h8.42c4.31,0,6.72,1.83,6.72,4.85a4.43,4.43,0,0,1-2.52,4.18A4.53,4.53,0,0,1,114.9,557.94Zm-13.45-11.53v6H107c2.73,0,4.28-1,4.28-3s-1.55-3-4.28-3Zm10.75,11.31c0-2.17-1.61-3.13-4.58-3.13h-6.17v6.24h6.17C110.59,560.83,112.2,559.89,112.2,557.72Z" transform="translate(0 -2.83)" fill="#ec576c"/><path d="M118.23,544.4a1.69,1.69,0,0,1,1.74-1.68,1.66,1.66,0,0,1,1.74,1.63,1.74,1.74,0,0,1-3.48,0Zm.46,4.4h2.57V563h-2.57Z" transform="translate(0 -2.83)" fill="#ec576c"/><path d="M131.68,556.38l-2.94,2.74V563h-2.58V543.12h2.58v12.75l7.74-7.07h3.11l-6,5.87,6.57,8.33H137Z" transform="translate(0 -2.83)" fill="#ec576c"/><path d="M152.59,559.2l1.39,1.66a7,7,0,0,1-5.57,2.3c-4.59,0-7.64-3-7.64-7.26a6.93,6.93,0,0,1,7.13-7.23,6.77,6.77,0,0,1,7,7l-11.28,2.2a4.83,4.83,0,0,0,4.88,3.08A5.32,5.32,0,0,0,152.59,559.2Zm-9.33-3.43V556l9.09-1.71a4.4,4.4,0,0,0-4.45-3.49C145.19,550.83,143.26,552.79,143.26,555.77Z" transform="translate(0 -2.83)" fill="#ec576c"/><path d="M183.46,563l0-13.67-6.78,11.39h-1.23l-6.78-11.3V563h-2.57V544.24h2.2l7.82,13.19,7.72-13.19H186L186,563Z" transform="translate(0 -2.83)" fill="#ec576c"/><path d="M190,560.86l1-2.09a9.65,9.65,0,0,0,6.19,2.17c3.24,0,4.63-1.26,4.63-2.9,0-4.58-11.36-1.68-11.36-8.65,0-2.9,2.25-5.36,7.18-5.36a11,11,0,0,1,6,1.66l-.88,2.14a9.73,9.73,0,0,0-5.15-1.52c-3.18,0-4.55,1.34-4.55,3,0,4.58,11.36,1.72,11.36,8.6,0,2.87-2.3,5.33-7.26,5.33A11.14,11.14,0,0,1,190,560.86Z" transform="translate(0 -2.83)" fill="#ec576c"/><path d="M206.59,550.49a1.79,1.79,0,0,1,1.82-1.82,1.76,1.76,0,0,1,1.77,1.82,1.79,1.79,0,0,1-1.77,1.85A1.81,1.81,0,0,1,206.59,550.49Zm0,10.82a1.79,1.79,0,0,1,1.82-1.82,1.76,1.76,0,0,1,1.77,1.82,1.79,1.79,0,0,1-1.77,1.85A1.81,1.81,0,0,1,206.59,561.31Z" transform="translate(0 -2.83)" fill="#ec576c"/><path d="M234,563l-4-5.76c-.38,0-.78,0-1.18,0h-4.64V563h-2.68V544.24h7.32c4.88,0,7.82,2.47,7.82,6.54a5.91,5.91,0,0,1-4.12,5.92l4.44,6.3Zm-.08-12.22c0-2.68-1.79-4.2-5.22-4.2h-4.56V555h4.56C232.13,555,233.92,553.46,233.92,550.78Z" transform="translate(0 -2.83)" fill="#ec576c"/><path d="M240.12,544.4a1.69,1.69,0,0,1,1.74-1.68,1.66,1.66,0,0,1,1.74,1.63,1.74,1.74,0,0,1-3.48,0Zm.45,4.4h2.57V563h-2.57Z" transform="translate(0 -2.83)" fill="#ec576c"/><path d="M261.45,543.12V563H259v-2.25a6,6,0,0,1-5.06,2.41,7.25,7.25,0,0,1,0-14.49,6,6,0,0,1,5,2.27v-7.82ZM258.9,555.9a4.79,4.79,0,1,0-4.77,5A4.67,4.67,0,0,0,258.9,555.9Z" transform="translate(0 -2.83)" fill="#ec576c"/><path d="M276.83,559.2l1.39,1.66a7,7,0,0,1-5.57,2.3c-4.58,0-7.64-3-7.64-7.26a6.93,6.93,0,0,1,7.13-7.23,6.77,6.77,0,0,1,7,7l-11.28,2.2a4.84,4.84,0,0,0,4.88,3.08A5.3,5.3,0,0,0,276.83,559.2Zm-9.33-3.43V556l9.09-1.71a4.39,4.39,0,0,0-4.45-3.49C269.43,550.83,267.5,552.79,267.5,555.77Z" transform="translate(0 -2.83)" fill="#ec576c"/><path d="M297.41,562.17a4.85,4.85,0,0,1-3.11,1c-2.86,0-4.5-1.58-4.5-4.45v-13h2.58v3.11h4.07v2.12h-4.07v7.69A2.08,2.08,0,0,0,294.6,561a3.24,3.24,0,0,0,2-.67Z" transform="translate(0 -2.83)" fill="#ec576c"/><path d="M298.73,555.9a7.38,7.38,0,1,1,7.39,7.26A7.06,7.06,0,0,1,298.73,555.9Zm12.16,0a4.79,4.79,0,1,0-4.77,5A4.65,4.65,0,0,0,310.89,555.9Z" transform="translate(0 -2.83)" fill="#ec576c"/><path d="M331.74,562.17a4.83,4.83,0,0,1-3.11,1c-2.86,0-4.5-1.58-4.5-4.45v-13h2.58v3.11h4.07v2.12h-4.07v7.69a2.08,2.08,0,0,0,2.22,2.38,3.24,3.24,0,0,0,2-.67Z" transform="translate(0 -2.83)" fill="#ec576c"/><path d="M348.33,554.83V563h-2.57v-7.88c0-2.78-1.4-4.15-3.83-4.15-2.74,0-4.51,1.63-4.51,4.72V563h-2.57V543.12h2.57v7.69a6.16,6.16,0,0,1,5-2.14C345.89,548.67,348.33,550.65,348.33,554.83Z" transform="translate(0 -2.83)" fill="#ec576c"/><path d="M363.69,559.2l1.39,1.66a7,7,0,0,1-5.57,2.3c-4.58,0-7.64-3-7.64-7.26a6.93,6.93,0,0,1,7.13-7.23,6.77,6.77,0,0,1,7,7l-11.28,2.2a4.83,4.83,0,0,0,4.88,3.08A5.32,5.32,0,0,0,363.69,559.2Zm-9.33-3.43V556l9.09-1.71a4.4,4.4,0,0,0-4.45-3.49C356.29,550.83,354.36,552.79,354.36,555.77Z" transform="translate(0 -2.83)" fill="#ec576c"/><path d="M389.71,563l-4-5.76c-.37,0-.77,0-1.18,0h-4.63V563h-2.68V544.24h7.31c4.88,0,7.83,2.47,7.83,6.54a5.9,5.9,0,0,1-4.13,5.92l4.45,6.3Zm-.08-12.22c0-2.68-1.8-4.2-5.23-4.2h-4.55V555h4.55C387.83,555,389.63,553.46,389.63,550.78Z" transform="translate(0 -2.83)" fill="#ec576c"/><path d="M395.82,544.4a1.69,1.69,0,0,1,1.74-1.68,1.66,1.66,0,0,1,1.74,1.63,1.74,1.74,0,0,1-3.48,0Zm.46,4.4h2.57V563h-2.57Z" transform="translate(0 -2.83)" fill="#ec576c"/><path d="M416.32,548.8,410.1,563h-2.62l-6.22-14.2h2.68l4.88,11.39,5-11.39Z" transform="translate(0 -2.83)" fill="#ec576c"/><path d="M428.84,559.2l1.39,1.66a7,7,0,0,1-5.57,2.3c-4.59,0-7.64-3-7.64-7.26a6.93,6.93,0,0,1,7.13-7.23,6.77,6.77,0,0,1,7,7l-11.28,2.2a4.83,4.83,0,0,0,4.88,3.08A5.32,5.32,0,0,0,428.84,559.2Zm-9.33-3.43V556l9.08-1.71a4.38,4.38,0,0,0-4.44-3.49C421.44,550.83,419.51,552.79,419.51,555.77Z" transform="translate(0 -2.83)" fill="#ec576c"/><path d="M442.37,548.67v2.49a4,4,0,0,0-.59,0c-2.76,0-4.47,1.69-4.47,4.8V563h-2.58V548.8h2.47v2.38C438.11,549.52,439.88,548.67,442.37,548.67Z" transform="translate(0 -2.83)" fill="#ec576c"/><polygon points="9.84 268.23 11.54 257.45 19.06 265.35 29.84 263.63 24.65 273.23 29.61 282.95 18.88 280.98 11.17 288.7 9.73 277.89 0 272.94 9.84 268.23" fill="#ec576c"/><polygon points="505.94 264.91 513.2 256.76 515.25 267.48 525.24 271.86 515.69 277.13 514.61 287.99 506.65 280.52 495.99 282.85 500.62 272.97 495.11 263.56 505.94 264.91" fill="#ec576c"/></g><g id="a14fe503-3849-437f-a745-8f6710b90efb" data-name="Layer 4"><path d="M172.41,363.54h-2.59V368h-4.76V351.2h7.68c4.59,0,7.47,2.38,7.47,6.22a5.57,5.57,0,0,1-3.29,5.3l3.62,5.28h-5.08Zm.05-8.6h-2.64v4.92h2.64c2,0,2.95-.91,2.95-2.44S174.42,354.94,172.46,354.94Z" transform="translate(0 -2.83)" fill="#23a4a6"/><path d="M189.52,354.87v9.46h2.71V368H182v-3.67h2.74v-9.46H182V351.2h10.2v3.67Z" transform="translate(0 -2.83)" fill="#23a4a6"/><path d="M194.8,351.2h7.94c5.57,0,9.39,3.24,9.39,8.4s-3.82,8.4-9.39,8.4H194.8Zm7.75,13c2.86,0,4.78-1.71,4.78-4.61s-1.92-4.61-4.78-4.61h-3v9.22Z" transform="translate(0 -2.83)" fill="#23a4a6"/><path d="M229.07,366.73a14.75,14.75,0,0,1-7,1.61c-5.52,0-8.36-2.14-8.36-5.12a4.15,4.15,0,0,1,2.72-3.89,3.71,3.71,0,0,1-2-3.38c0-2.69,2.5-5.09,8-5.09a16.18,16.18,0,0,1,6.1,1.15l-1.3,3.56a11.13,11.13,0,0,0-4.6-1c-2.36,0-3.39.67-3.39,1.68s.62,1.44,2.09,1.44h4.75v3.63H221c-1.63,0-2.48.55-2.48,1.56s1.08,1.73,3.75,1.73a11.1,11.1,0,0,0,5.35-1.4Z" transform="translate(0 -2.83)" fill="#23a4a6"/><path d="M263.8,351.2V361c0,4.75-2.86,7.32-7.75,7.32a7.51,7.51,0,0,1-5.23-1.76,7.55,7.55,0,0,1-5.26,1.76c-4.87,0-7.75-2.57-7.75-7.32V351.2h4.75v9.67c0,2.43,1,3.53,2.93,3.53s2.93-1.1,2.93-3.53V351.2h4.75v9.67c0,2.43,1,3.53,3,3.53s2.91-1.1,2.91-3.53V351.2Z" transform="translate(0 -2.83)" fill="#23a4a6"/><path d="M273.74,354.87v9.46h2.71V368h-10.2v-3.67H269v-9.46h-2.73V351.2h10.2v3.67Z" transform="translate(0 -2.83)" fill="#23a4a6"/><path d="M282.59,355h-5.16V351.2h15.05V355h-5.14v13h-4.75Z" transform="translate(0 -2.83)" fill="#23a4a6"/><path d="M310.24,351.2V368h-4.75v-6.55H299V368h-4.76V351.2H299v6.31h6.48V351.2Z" transform="translate(0 -2.83)" fill="#23a4a6"/><path d="M335,366.73a14.75,14.75,0,0,1-7,1.61c-5.52,0-8.36-2.14-8.36-5.12a4.15,4.15,0,0,1,2.72-3.89,3.71,3.71,0,0,1-2-3.38c0-2.69,2.5-5.09,8-5.09a16.18,16.18,0,0,1,6.1,1.15l-1.3,3.56a11.15,11.15,0,0,0-4.61-1c-2.35,0-3.38.67-3.38,1.68s.62,1.44,2.09,1.44H332v3.63H327c-1.64,0-2.48.55-2.48,1.56s1.08,1.73,3.75,1.73a11.1,11.1,0,0,0,5.35-1.4Z" transform="translate(0 -2.83)" fill="#23a4a6"/><path d="M336.92,351.2h4.76v13h8V368H336.92Z" transform="translate(0 -2.83)" fill="#23a4a6"/><path d="M358.26,354.87v9.46H361V368h-10.2v-3.67h2.74v-9.46h-2.74V351.2H361v3.67Z" transform="translate(0 -2.83)" fill="#23a4a6"/><path d="M228.29,166.73a14.75,14.75,0,0,1-7,1.61c-5.52,0-8.36-2.14-8.36-5.12a4.15,4.15,0,0,1,2.72-3.89,3.71,3.71,0,0,1-2-3.38c0-2.69,2.5-5.09,8-5.09a16.18,16.18,0,0,1,6.1,1.15l-1.3,3.56a11.13,11.13,0,0,0-4.6-1c-2.36,0-3.39.67-3.39,1.68s.63,1.44,2.09,1.44h4.75v3.63h-5.06c-1.63,0-2.48.55-2.48,1.56s1.08,1.73,3.75,1.73a11.1,11.1,0,0,0,5.35-1.4Z" transform="translate(0 -2.83)" fill="#23a4a6"/><path d="M246.17,151.2V168h-3.91l-7.42-8.95V168h-4.65V151.2h3.91l7.42,9v-9Z" transform="translate(0 -2.83)" fill="#23a4a6"/><path d="M249.53,151.2h8c5.56,0,9.38,3.24,9.38,8.4S263,168,257.48,168h-8Zm7.75,13c2.86,0,4.78-1.71,4.78-4.61s-1.92-4.61-4.78-4.61h-3v9.22Z" transform="translate(0 -2.83)" fill="#23a4a6"/><path d="M291.51,168l-.05-8.9-4.32,7.24H285l-4.3-7V168h-4.39V151.2h3.91l5.91,9.7,5.76-9.7h3.91l.05,16.8Z" transform="translate(0 -2.83)" fill="#23a4a6"/><path d="M298.06,166.49l1.56-3.51a10.55,10.55,0,0,0,5.54,1.66c2,0,2.74-.55,2.74-1.37,0-2.66-9.55-.72-9.55-7,0-3,2.44-5.45,7.44-5.45a12.55,12.55,0,0,1,6.09,1.47l-1.46,3.52a10,10,0,0,0-4.66-1.29c-2,0-2.71.67-2.71,1.51,0,2.57,9.53.65,9.53,6.84,0,2.93-2.45,5.43-7.44,5.43A13.26,13.26,0,0,1,298.06,166.49Z" transform="translate(0 -2.83)" fill="#23a4a6"/></g></svg>